<svg width="34" height="34" viewBox="0 0 34 34" fill="none" xmlns="http://www.w3.org/2000/svg">
<path d="M14.1236 12.9044C14.3647 12.9346 14.584 13.0593 14.7332 13.2512C14.8824 13.443 14.9493 13.6862 14.9192 13.9274L14.0906 20.5622C14.0604 20.8035 13.9357 21.0229 13.7437 21.1723C13.5518 21.3216 13.3084 21.3885 13.0671 21.3583C12.8258 21.3282 12.6064 21.2034 12.4571 21.0115C12.3078 20.8196 12.2408 20.5762 12.271 20.3349L13.1006 13.7001C13.1308 13.4589 13.2555 13.2396 13.4474 13.0904C13.6392 12.9412 13.8824 12.8743 14.1236 12.9044V12.9044Z" fill="#EB6519"/>
<path fill-rule="evenodd" clip-rule="evenodd" d="M3.25 0.5C2.52065 0.5 1.82118 0.789731 1.30546 1.30546C0.789731 1.82118 0.5 2.52065 0.5 3.25V30.75C0.5 31.4793 0.789731 32.1788 1.30546 32.6945C1.82118 33.2103 2.52065 33.5 3.25 33.5H30.75C31.4793 33.5 32.1788 33.2103 32.6945 32.6945C33.2103 32.1788 33.5 31.4793 33.5 30.75V3.25C33.5 2.52065 33.2103 1.82118 32.6945 1.30546C32.1788 0.789731 31.4793 0.5 30.75 0.5H3.25ZM10.9995 13.0235C11.1783 11.5055 12.2755 10.2295 13.7816 9.96917C16.1191 9.56583 17.9891 9.56858 20.2358 9.96183C21.7346 10.224 22.8208 11.4973 22.9996 13.0079L24.3333 24.3333H9.66667L10.9995 13.0235ZM8.75 28V26.1667H25.25V28H8.75ZM6.95792 17.9167C6.9031 17.3068 6.9031 16.6932 6.95792 16.0833H4.16667V17.9167H6.95792ZM7.84342 12.7714C8.10043 12.216 8.40756 11.6852 8.761 11.1856L6.34467 9.7895L5.428 11.3772L7.84342 12.7714V12.7714ZM11.1847 8.761C11.6824 8.40992 12.2132 8.101 12.7723 7.84342L11.3772 5.428L9.7895 6.34467L11.1847 8.761ZM16.0833 6.95792C16.6932 6.9031 17.3068 6.9031 17.9167 6.95792V4.16667H16.0833V6.95792ZM21.2286 7.84342C21.7839 8.10065 22.3147 8.40778 22.8144 8.761L24.2105 6.34467L22.6228 5.428L21.2286 7.84342V7.84342ZM25.239 11.1847C25.5901 11.6824 25.899 12.2132 26.1566 12.7723L28.572 11.3772L27.6553 9.7895L25.239 11.1847V11.1847ZM27.0421 16.0833C27.0969 16.6932 27.0969 17.3068 27.0421 17.9167H29.8333V16.0833H27.0421Z" fill="#EB6519"/>
</svg>
